REM DIRINDEX 1\2,1\3,1\4,1\5
REM DIRNAME "folder01","folder02","folder03","folder04","folder05"
TITLE ""
FILE "P1Q_t_1249-1258.mp3" MP3
  TRACK 01 AUDIO
    TITLE "0:"
    INDEX 01 00:00:00
  TRACK 02 AUDIO
    TITLE "3:cjc173_4714"
    INDEX 01 00:00:14
  TRACK 03 AUDIO
    TITLE "0:"
    INDEX 01 00:01:23
  TRACK 04 AUDIO
    TITLE "4:cjc173_4715"
    INDEX 01 00:01:43
  TRACK 05 AUDIO
    TITLE "0:"
    INDEX 01 00:04:00
  TRACK 06 AUDIO
    TITLE "5:cjc173_4716"
    INDEX 01 00:04:20
  TRACK 07 AUDIO
    TITLE "0:"
    INDEX 01 00:08:73
  TRACK 08 AUDIO
    TITLE "3:cjc173_4717"
    INDEX 01 00:09:41
  TRACK 09 AUDIO
    TITLE "0:"
    INDEX 01 00:10:67
  TRACK 10 AUDIO
    TITLE "4:cjc173_4718"
    INDEX 01 00:11:12
  TRACK 11 AUDIO
    TITLE "0:"
    INDEX 01 00:12:62
  TRACK 12 AUDIO
    TITLE "5:cjc173_4719"
    INDEX 01 00:13:05
  TRACK 13 AUDIO
    TITLE "0:"
    INDEX 01 00:17:26
  TRACK 14 AUDIO
    TITLE "3:cjc173_4720"
    INDEX 01 00:17:73
  TRACK 15 AUDIO
    TITLE "0:"
    INDEX 01 00:19:39
  TRACK 16 AUDIO
    TITLE "4:cjc173_4721"
    INDEX 01 00:19:61
  TRACK 17 AUDIO
    TITLE "0:"
    INDEX 01 00:21:69
  TRACK 18 AUDIO
    TITLE "5:cjc173_4722"
    INDEX 01 00:22:12
  TRACK 19 AUDIO
    TITLE "0:"
    INDEX 01 00:27:64
  TRACK 20 AUDIO
    TITLE "3:cjc173_4723"
    INDEX 01 00:28:34
  TRACK 21 AUDIO
    TITLE "0:"
    INDEX 01 00:29:39
  TRACK 22 AUDIO
    TITLE "4:cjc173_4724"
    INDEX 01 00:29:61
  TRACK 23 AUDIO
    TITLE "0:"
    INDEX 01 00:34:17
  TRACK 24 AUDIO
    TITLE "5:cjc173_4725"
    INDEX 01 00:34:46
  TRACK 25 AUDIO
    TITLE "0:"
    INDEX 01 00:37:45
  TRACK 26 AUDIO
    TITLE "3:cjc173_4726"
    INDEX 01 00:38:17
  TRACK 27 AUDIO
    TITLE "0:"
    INDEX 01 00:39:38
  TRACK 28 AUDIO
    TITLE "4:cjc173_4727"
    INDEX 01 00:39:57
  TRACK 29 AUDIO
    TITLE "0:"
    INDEX 01 00:42:13
  TRACK 30 AUDIO
    TITLE "5:cjc173_4728"
    INDEX 01 00:42:34
  TRACK 31 AUDIO
    TITLE "0:"
    INDEX 01 00:47:45
  TRACK 32 AUDIO
    TITLE "3:cjc173_4729"
    INDEX 01 00:48:17
  TRACK 33 AUDIO
    TITLE "0:"
    INDEX 01 00:49:48
  TRACK 34 AUDIO
    TITLE "4:cjc173_4730"
    INDEX 01 00:49:70
  TRACK 35 AUDIO
    TITLE "0:"
    INDEX 01 00:52:05
  TRACK 36 AUDIO
    TITLE "5:cjc173_4731"
    INDEX 01 00:52:23
  TRACK 37 AUDIO
    TITLE "0:"
    INDEX 01 00:57:55
  TRACK 38 AUDIO
    TITLE "3:cjc173_4732"
    INDEX 01 00:58:25
  TRACK 39 AUDIO
    TITLE "0:"
    INDEX 01 00:59:35
  TRACK 40 AUDIO
    TITLE "4:cjc173_4733"
    INDEX 01 00:59:54
  TRACK 41 AUDIO
    TITLE "0:"
    INDEX 01 01:01:12
  TRACK 42 AUDIO
    TITLE "5:cjc173_4734"
    INDEX 01 01:01:33
  TRACK 43 AUDIO
    TITLE "0:"
    INDEX 01 01:06:74
  TRACK 44 AUDIO
    TITLE "3:cjc173_4735"
    INDEX 01 01:07:44
  TRACK 45 AUDIO
    TITLE "0:"
    INDEX 01 01:08:73
  TRACK 46 AUDIO
    TITLE "4:cjc173_4736"
    INDEX 01 01:09:19
  TRACK 47 AUDIO
    TITLE "0:"
    INDEX 01 01:12:14
  TRACK 48 AUDIO
    TITLE "5:cjc173_4737"
    INDEX 01 01:12:33
  TRACK 49 AUDIO
    TITLE "0:"
    INDEX 01 01:17:15
  TRACK 50 AUDIO
    TITLE "3:cjc173_4738"
    INDEX 01 01:17:62
  TRACK 51 AUDIO
    TITLE "0:"
    INDEX 01 01:18:73
  TRACK 52 AUDIO
    TITLE "4:cjc173_4739"
    INDEX 01 01:19:18
  TRACK 53 AUDIO
    TITLE "0:"
    INDEX 01 01:20:19
  TRACK 54 AUDIO
    TITLE "5:cjc173_4740"
    INDEX 01 01:20:41
  TRACK 55 AUDIO
    TITLE "0:"
    INDEX 01 01:24:42
  TRACK 56 AUDIO
    TITLE "3:cjc173_4741"
    INDEX 01 01:25:12
  TRACK 57 AUDIO
    TITLE "0:"
    INDEX 01 01:26:41
  TRACK 58 AUDIO
    TITLE "4:cjc173_4742"
    INDEX 01 01:26:61
  TRACK 59 AUDIO
    TITLE "0:"
    INDEX 01 01:29:04
  TRACK 60 AUDIO
    TITLE "5:cjc173_4743"
    INDEX 01 01:29:24
  TRACK 61 AUDIO
    TITLE "0:"
    INDEX 01 01:33:35
